<svg width="360" height="360"
  xmlns="http://www.w3.org/2000/svg" xmlns:xlink="http://www.w3.org/1999/xlink">
<g id="gTiles1">
  <svg width="45" height="45" x="0" y="0">
  <g id="tile1x1" style="opacity:1; fill:000000; fill-opacity:1; fill-rule:evenodd; stroke:#000000; stroke-width:1.5; stroke-linecap:round;stroke-linejoin:round;stroke-miterlimit:4; stroke-dasharray:none; stroke-opacity:1;">
    <rect x="0" y="0" width="45" height="45" style="fill:#ffce9e; stroke:none;"  />
  </g>
</svg>
</g>
<g id="gTiles2">
<svg width="45" height="45" x="0" y="45">
    <g id="tile1x2" style="opacity:1; fill:000000; fill-opacity:1; fill-rule:evenodd; stroke:#000000; stroke-width:1.5; stroke-linecap:round;stroke-linejoin:round;stroke-miterlimit:4; stroke-dasharray:none; stroke-opacity:1;">
      <rect x="0" y="0" width="45" height="45" style="fill:#d18b47; stroke:none;"  />
    </g>
  </svg>
<svg width="45" height="45" x="45" y="0">
    <g id="tile2x1" style="opacity:1; fill:000000; fill-opacity:1; fill-rule:evenodd; stroke:#000000; stroke-width:1.5; stroke-linecap:round;stroke-linejoin:round;stroke-miterlimit:4; stroke-dasharray:none; stroke-opacity:1;">
      <rect x="0" y="0" width="45" height="45" style="fill:#d18b47; stroke:none;"  />
    </g>
  </svg>
  <svg width="45" height="45" x="45" y="45">
  <g id="tile2x2" style="opacity:1; fill:000000; fill-opacity:1; fill-rule:evenodd; stroke:#000000; stroke-width:1.5; stroke-linecap:round;stroke-linejoin:round;stroke-miterlimit:4; stroke-dasharray:none; stroke-opacity:1;">
    <rect x="0" y="0" width="45" height="45" style="fill:#ffce9e; stroke:none;"  />
  </g>
</svg>
</g>
<g id="gTiles3">
  <svg width="45" height="45" x="0" y="90">
  <g id="tile1x3" style="opacity:1; fill:000000; fill-opacity:1; fill-rule:evenodd; stroke:#000000; stroke-width:1.5; stroke-linecap:round;stroke-linejoin:round;stroke-miterlimit:4; stroke-dasharray:none; stroke-opacity:1;">
    <rect x="0" y="0" width="45" height="45" style="fill:#ffce9e; stroke:none;"  />
  </g>
</svg>
<svg width="45" height="45" x="45" y="90">
    <g id="tile2x3" style="opacity:1; fill:000000; fill-opacity:1; fill-rule:evenodd; stroke:#000000; stroke-width:1.5; stroke-linecap:round;stroke-linejoin:round;stroke-miterlimit:4; stroke-dasharray:none; stroke-opacity:1;">
      <rect x="0" y="0" width="45" height="45" style="fill:#d18b47; stroke:none;"  />
    </g>
  </svg>
  <svg width="45" height="45" x="90" y="0">
  <g id="tile3x1" style="opacity:1; fill:000000; fill-opacity:1; fill-rule:evenodd; stroke:#000000; stroke-width:1.5; stroke-linecap:round;stroke-linejoin:round;stroke-miterlimit:4; stroke-dasharray:none; stroke-opacity:1;">
    <rect x="0" y="0" width="45" height="45" style="fill:#ffce9e; stroke:none;"  />
  </g>
</svg>
<svg width="45" height="45" x="90" y="45">
    <g id="tile3x2" style="opacity:1; fill:000000; fill-opacity:1; fill-rule:evenodd; stroke:#000000; stroke-width:1.5; stroke-linecap:round;stroke-linejoin:round;stroke-miterlimit:4; stroke-dasharray:none; stroke-opacity:1;">
      <rect x="0" y="0" width="45" height="45" style="fill:#d18b47; stroke:none;"  />
    </g>
  </svg>
  <svg width="45" height="45" x="90" y="90">
  <g id="tile3x3" style="opacity:1; fill:000000; fill-opacity:1; fill-rule:evenodd; stroke:#000000; stroke-width:1.5; stroke-linecap:round;stroke-linejoin:round;stroke-miterlimit:4; stroke-dasharray:none; stroke-opacity:1;">
    <rect x="0" y="0" width="45" height="45" style="fill:#ffce9e; stroke:none;"  />
  </g>
</svg>
</g>
<g id="gTiles4">
<svg width="45" height="45" x="0" y="135">
    <g id="tile1x4" style="opacity:1; fill:000000; fill-opacity:1; fill-rule:evenodd; stroke:#000000; stroke-width:1.5; stroke-linecap:round;stroke-linejoin:round;stroke-miterlimit:4; stroke-dasharray:none; stroke-opacity:1;">
      <rect x="0" y="0" width="45" height="45" style="fill:#d18b47; stroke:none;"  />
    </g>
  </svg>
  <svg width="45" height="45" x="45" y="135">
  <g id="tile2x4" style="opacity:1; fill:000000; fill-opacity:1; fill-rule:evenodd; stroke:#000000; stroke-width:1.5; stroke-linecap:round;stroke-linejoin:round;stroke-miterlimit:4; stroke-dasharray:none; stroke-opacity:1;">
    <rect x="0" y="0" width="45" height="45" style="fill:#ffce9e; stroke:none;"  />
  </g>
</svg>
<svg width="45" height="45" x="90" y="135">
    <g id="tile3x4" style="opacity:1; fill:000000; fill-opacity:1; fill-rule:evenodd; stroke:#000000; stroke-width:1.5; stroke-linecap:round;stroke-linejoin:round;stroke-miterlimit:4; stroke-dasharray:none; stroke-opacity:1;">
      <rect x="0" y="0" width="45" height="45" style="fill:#d18b47; stroke:none;"  />
    </g>
  </svg>
<svg width="45" height="45" x="135" y="0">
    <g id="tile4x1" style="opacity:1; fill:000000; fill-opacity:1; fill-rule:evenodd; stroke:#000000; stroke-width:1.5; stroke-linecap:round;stroke-linejoin:round;stroke-miterlimit:4; stroke-dasharray:none; stroke-opacity:1;">
      <rect x="0" y="0" width="45" height="45" style="fill:#d18b47; stroke:none;"  />
    </g>
  </svg>
  <svg width="45" height="45" x="135" y="45">
  <g id="tile4x2" style="opacity:1; fill:000000; fill-opacity:1; fill-rule:evenodd; stroke:#000000; stroke-width:1.5; stroke-linecap:round;stroke-linejoin:round;stroke-miterlimit:4; stroke-dasharray:none; stroke-opacity:1;">
    <rect x="0" y="0" width="45" height="45" style="fill:#ffce9e; stroke:none;"  />
  </g>
</svg>
<svg width="45" height="45" x="135" y="90">
    <g id="tile4x3" style="opacity:1; fill:000000; fill-opacity:1; fill-rule:evenodd; stroke:#000000; stroke-width:1.5; stroke-linecap:round;stroke-linejoin:round;stroke-miterlimit:4; stroke-dasharray:none; stroke-opacity:1;">
      <rect x="0" y="0" width="45" height="45" style="fill:#d18b47; stroke:none;"  />
    </g>
  </svg>
  <svg width="45" height="45" x="135" y="135">
  <g id="tile4x4" style="opacity:1; fill:000000; fill-opacity:1; fill-rule:evenodd; stroke:#000000; stroke-width:1.5; stroke-linecap:round;stroke-linejoin:round;stroke-miterlimit:4; stroke-dasharray:none; stroke-opacity:1;">
    <rect x="0" y="0" width="45" height="45" style="fill:#ffce9e; stroke:none;"  />
  </g>
</svg>
</g>
<g id="gTiles5">
  <svg width="45" height="45" x="0" y="180">
  <g id="tile1x5" style="opacity:1; fill:000000; fill-opacity:1; fill-rule:evenodd; stroke:#000000; stroke-width:1.5; stroke-linecap:round;stroke-linejoin:round;stroke-miterlimit:4; stroke-dasharray:none; stroke-opacity:1;">
    <rect x="0" y="0" width="45" height="45" style="fill:#ffce9e; stroke:none;"  />
  </g>
</svg>
<svg width="45" height="45" x="45" y="180">
    <g id="tile2x5" style="opacity:1; fill:000000; fill-opacity:1; fill-rule:evenodd; stroke:#000000; stroke-width:1.5; stroke-linecap:round;stroke-linejoin:round;stroke-miterlimit:4; stroke-dasharray:none; stroke-opacity:1;">
      <rect x="0" y="0" width="45" height="45" style="fill:#d18b47; stroke:none;"  />
    </g>
  </svg>
  <svg width="45" height="45" x="90" y="180">
  <g id="tile3x5" style="opacity:1; fill:000000; fill-opacity:1; fill-rule:evenodd; stroke:#000000; stroke-width:1.5; stroke-linecap:round;stroke-linejoin:round;stroke-miterlimit:4; stroke-dasharray:none; stroke-opacity:1;">
    <rect x="0" y="0" width="45" height="45" style="fill:#ffce9e; stroke:none;"  />
  </g>
</svg>
<svg width="45" height="45" x="135" y="180">
    <g id="tile4x5" style="opacity:1; fill:000000; fill-opacity:1; fill-rule:evenodd; stroke:#000000; stroke-width:1.5; stroke-linecap:round;stroke-linejoin:round;stroke-miterlimit:4; stroke-dasharray:none; stroke-opacity:1;">
      <rect x="0" y="0" width="45" height="45" style="fill:#d18b47; stroke:none;"  />
    </g>
  </svg>
  <svg width="45" height="45" x="180" y="0">
  <g id="tile5x1" style="opacity:1; fill:000000; fill-opacity:1; fill-rule:evenodd; stroke:#000000; stroke-width:1.5; stroke-linecap:round;stroke-linejoin:round;stroke-miterlimit:4; stroke-dasharray:none; stroke-opacity:1;">
    <rect x="0" y="0" width="45" height="45" style="fill:#ffce9e; stroke:none;"  />
  </g>
</svg>
<svg width="45" height="45" x="180" y="45">
    <g id="tile5x2" style="opacity:1; fill:000000; fill-opacity:1; fill-rule:evenodd; stroke:#000000; stroke-width:1.5; stroke-linecap:round;stroke-linejoin:round;stroke-miterlimit:4; stroke-dasharray:none; stroke-opacity:1;">
      <rect x="0" y="0" width="45" height="45" style="fill:#d18b47; stroke:none;"  />
    </g>
  </svg>
  <svg width="45" height="45" x="180" y="90">
  <g id="tile5x3" style="opacity:1; fill:000000; fill-opacity:1; fill-rule:evenodd; stroke:#000000; stroke-width:1.5; stroke-linecap:round;stroke-linejoin:round;stroke-miterlimit:4; stroke-dasharray:none; stroke-opacity:1;">
    <rect x="0" y="0" width="45" height="45" style="fill:#ffce9e; stroke:none;"  />
  </g>
</svg>
<svg width="45" height="45" x="180" y="135">
    <g id="tile5x4" style="opacity:1; fill:000000; fill-opacity:1; fill-rule:evenodd; stroke:#000000; stroke-width:1.5; stroke-linecap:round;stroke-linejoin:round;stroke-miterlimit:4; stroke-dasharray:none; stroke-opacity:1;">
      <rect x="0" y="0" width="45" height="45" style="fill:#d18b47; stroke:none;"  />
    </g>
  </svg>
  <svg width="45" height="45" x="180" y="180">
  <g id="tile5x5" style="opacity:1; fill:000000; fill-opacity:1; fill-rule:evenodd; stroke:#000000; stroke-width:1.5; stroke-linecap:round;stroke-linejoin:round;stroke-miterlimit:4; stroke-dasharray:none; stroke-opacity:1;">
    <rect x="0" y="0" width="45" height="45" style="fill:#ffce9e; stroke:none;"  />
  </g>
</svg>
</g>
<g id="gTiles6">
<svg width="45" height="45" x="0" y="225">
    <g id="tile1x6" style="opacity:1; fill:000000; fill-opacity:1; fill-rule:evenodd; stroke:#000000; stroke-width:1.5; stroke-linecap:round;stroke-linejoin:round;stroke-miterlimit:4; stroke-dasharray:none; stroke-opacity:1;">
      <rect x="0" y="0" width="45" height="45" style="fill:#d18b47; stroke:none;"  />
    </g>
  </svg>
  <svg width="45" height="45" x="45" y="225">
  <g id="tile2x6" style="opacity:1; fill:000000; fill-opacity:1; fill-rule:evenodd; stroke:#000000; stroke-width:1.5; stroke-linecap:round;stroke-linejoin:round;stroke-miterlimit:4; stroke-dasharray:none; stroke-opacity:1;">
    <rect x="0" y="0" width="45" height="45" style="fill:#ffce9e; stroke:none;"  />
  </g>
</svg>
<svg width="45" height="45" x="90" y="225">
    <g id="tile3x6" style="opacity:1; fill:000000; fill-opacity:1; fill-rule:evenodd; stroke:#000000; stroke-width:1.5; stroke-linecap:round;stroke-linejoin:round;stroke-miterlimit:4; stroke-dasharray:none; stroke-opacity:1;">
      <rect x="0" y="0" width="45" height="45" style="fill:#d18b47; stroke:none;"  />
    </g>
  </svg>
  <svg width="45" height="45" x="135" y="225">
  <g id="tile4x6" style="opacity:1; fill:000000; fill-opacity:1; fill-rule:evenodd; stroke:#000000; stroke-width:1.5; stroke-linecap:round;stroke-linejoin:round;stroke-miterlimit:4; stroke-dasharray:none; stroke-opacity:1;">
    <rect x="0" y="0" width="45" height="45" style="fill:#ffce9e; stroke:none;"  />
  </g>
</svg>
<svg width="45" height="45" x="180" y="225">
    <g id="tile5x6" style="opacity:1; fill:000000; fill-opacity:1; fill-rule:evenodd; stroke:#000000; stroke-width:1.5; stroke-linecap:round;stroke-linejoin:round;stroke-miterlimit:4; stroke-dasharray:none; stroke-opacity:1;">
      <rect x="0" y="0" width="45" height="45" style="fill:#d18b47; stroke:none;"  />
    </g>
  </svg>
<svg width="45" height="45" x="225" y="0">
    <g id="tile6x1" style="opacity:1; fill:000000; fill-opacity:1; fill-rule:evenodd; stroke:#000000; stroke-width:1.5; stroke-linecap:round;stroke-linejoin:round;stroke-miterlimit:4; stroke-dasharray:none; stroke-opacity:1;">
      <rect x="0" y="0" width="45" height="45" style="fill:#d18b47; stroke:none;"  />
    </g>
  </svg>
  <svg width="45" height="45" x="225" y="45">
  <g id="tile6x2" style="opacity:1; fill:000000; fill-opacity:1; fill-rule:evenodd; stroke:#000000; stroke-width:1.5; stroke-linecap:round;stroke-linejoin:round;stroke-miterlimit:4; stroke-dasharray:none; stroke-opacity:1;">
    <rect x="0" y="0" width="45" height="45" style="fill:#ffce9e; stroke:none;"  />
  </g>
</svg>
<svg width="45" height="45" x="225" y="90">
    <g id="tile6x3" style="opacity:1; fill:000000; fill-opacity:1; fill-rule:evenodd; stroke:#000000; stroke-width:1.5; stroke-linecap:round;stroke-linejoin:round;stroke-miterlimit:4; stroke-dasharray:none; stroke-opacity:1;">
      <rect x="0" y="0" width="45" height="45" style="fill:#d18b47; stroke:none;"  />
    </g>
  </svg>
  <svg width="45" height="45" x="225" y="135">
  <g id="tile6x4" style="opacity:1; fill:000000; fill-opacity:1; fill-rule:evenodd; stroke:#000000; stroke-width:1.5; stroke-linecap:round;stroke-linejoin:round;stroke-miterlimit:4; stroke-dasharray:none; stroke-opacity:1;">
    <rect x="0" y="0" width="45" height="45" style="fill:#ffce9e; stroke:none;"  />
  </g>
</svg>
<svg width="45" height="45" x="225" y="180">
    <g id="tile6x5" style="opacity:1; fill:000000; fill-opacity:1; fill-rule:evenodd; stroke:#000000; stroke-width:1.5; stroke-linecap:round;stroke-linejoin:round;stroke-miterlimit:4; stroke-dasharray:none; stroke-opacity:1;">
      <rect x="0" y="0" width="45" height="45" style="fill:#d18b47; stroke:none;"  />
    </g>
  </svg>
  <svg width="45" height="45" x="225" y="225">
  <g id="tile6x6" style="opacity:1; fill:000000; fill-opacity:1; fill-rule:evenodd; stroke:#000000; stroke-width:1.5; stroke-linecap:round;stroke-linejoin:round;stroke-miterlimit:4; stroke-dasharray:none; stroke-opacity:1;">
    <rect x="0" y="0" width="45" height="45" style="fill:#ffce9e; stroke:none;"  />
  </g>
</svg>
</g>
<g id="gTiles7">
  <svg width="45" height="45" x="0" y="270">
  <g id="tile1x7" style="opacity:1; fill:000000; fill-opacity:1; fill-rule:evenodd; stroke:#000000; stroke-width:1.5; stroke-linecap:round;stroke-linejoin:round;stroke-miterlimit:4; stroke-dasharray:none; stroke-opacity:1;">
    <rect x="0" y="0" width="45" height="45" style="fill:#ffce9e; stroke:none;"  />
  </g>
</svg>
<svg width="45" height="45" x="45" y="270">
    <g id="tile2x7" style="opacity:1; fill:000000; fill-opacity:1; fill-rule:evenodd; stroke:#000000; stroke-width:1.5; stroke-linecap:round;stroke-linejoin:round;stroke-miterlimit:4; stroke-dasharray:none; stroke-opacity:1;">
      <rect x="0" y="0" width="45" height="45" style="fill:#d18b47; stroke:none;"  />
    </g>
  </svg>
  <svg width="45" height="45" x="90" y="270">
  <g id="tile3x7" style="opacity:1; fill:000000; fill-opacity:1; fill-rule:evenodd; stroke:#000000; stroke-width:1.5; stroke-linecap:round;stroke-linejoin:round;stroke-miterlimit:4; stroke-dasharray:none; stroke-opacity:1;">
    <rect x="0" y="0" width="45" height="45" style="fill:#ffce9e; stroke:none;"  />
  </g>
</svg>
<svg width="45" height="45" x="135" y="270">
    <g id="tile4x7" style="opacity:1; fill:000000; fill-opacity:1; fill-rule:evenodd; stroke:#000000; stroke-width:1.5; stroke-linecap:round;stroke-linejoin:round;stroke-miterlimit:4; stroke-dasharray:none; stroke-opacity:1;">
      <rect x="0" y="0" width="45" height="45" style="fill:#d18b47; stroke:none;"  />
    </g>
  </svg>
  <svg width="45" height="45" x="180" y="270">
  <g id="tile5x7" style="opacity:1; fill:000000; fill-opacity:1; fill-rule:evenodd; stroke:#000000; stroke-width:1.5; stroke-linecap:round;stroke-linejoin:round;stroke-miterlimit:4; stroke-dasharray:none; stroke-opacity:1;">
    <rect x="0" y="0" width="45" height="45" style="fill:#ffce9e; stroke:none;"  />
  </g>
</svg>
<svg width="45" height="45" x="225" y="270">
    <g id="tile6x7" style="opacity:1; fill:000000; fill-opacity:1; fill-rule:evenodd; stroke:#000000; stroke-width:1.5; stroke-linecap:round;stroke-linejoin:round;stroke-miterlimit:4; stroke-dasharray:none; stroke-opacity:1;">
      <rect x="0" y="0" width="45" height="45" style="fill:#d18b47; stroke:none;"  />
    </g>
  </svg>
  <svg width="45" height="45" x="270" y="0">
  <g id="tile7x1" style="opacity:1; fill:000000; fill-opacity:1; fill-rule:evenodd; stroke:#000000; stroke-width:1.5; stroke-linecap:round;stroke-linejoin:round;stroke-miterlimit:4; stroke-dasharray:none; stroke-opacity:1;">
    <rect x="0" y="0" width="45" height="45" style="fill:#ffce9e; stroke:none;"  />
  </g>
</svg>
<svg width="45" height="45" x="270" y="45">
    <g id="tile7x2" style="opacity:1; fill:000000; fill-opacity:1; fill-rule:evenodd; stroke:#000000; stroke-width:1.5; stroke-linecap:round;stroke-linejoin:round;stroke-miterlimit:4; stroke-dasharray:none; stroke-opacity:1;">
      <rect x="0" y="0" width="45" height="45" style="fill:#d18b47; stroke:none;"  />
    </g>
  </svg>
  <svg width="45" height="45" x="270" y="90">
  <g id="tile7x3" style="opacity:1; fill:000000; fill-opacity:1; fill-rule:evenodd; stroke:#000000; stroke-width:1.5; stroke-linecap:round;stroke-linejoin:round;stroke-miterlimit:4; stroke-dasharray:none; stroke-opacity:1;">
    <rect x="0" y="0" width="45" height="45" style="fill:#ffce9e; stroke:none;"  />
  </g>
</svg>
<svg width="45" height="45" x="270" y="135">
    <g id="tile7x4" style="opacity:1; fill:000000; fill-opacity:1; fill-rule:evenodd; stroke:#000000; stroke-width:1.5; stroke-linecap:round;stroke-linejoin:round;stroke-miterlimit:4; stroke-dasharray:none; stroke-opacity:1;">
      <rect x="0" y="0" width="45" height="45" style="fill:#d18b47; stroke:none;"  />
    </g>
  </svg>
  <svg width="45" height="45" x="270" y="180">
  <g id="tile7x5" style="opacity:1; fill:000000; fill-opacity:1; fill-rule:evenodd; stroke:#000000; stroke-width:1.5; stroke-linecap:round;stroke-linejoin:round;stroke-miterlimit:4; stroke-dasharray:none; stroke-opacity:1;">
    <rect x="0" y="0" width="45" height="45" style="fill:#ffce9e; stroke:none;"  />
  </g>
</svg>
<svg width="45" height="45" x="270" y="225">
    <g id="tile7x6" style="opacity:1; fill:000000; fill-opacity:1; fill-rule:evenodd; stroke:#000000; stroke-width:1.5; stroke-linecap:round;stroke-linejoin:round;stroke-miterlimit:4; stroke-dasharray:none; stroke-opacity:1;">
      <rect x="0" y="0" width="45" height="45" style="fill:#d18b47; stroke:none;"  />
    </g>
  </svg>
  <svg width="45" height="45" x="270" y="270">
  <g id="tile7x7" style="opacity:1; fill:000000; fill-opacity:1; fill-rule:evenodd; stroke:#000000; stroke-width:1.5; stroke-linecap:round;stroke-linejoin:round;stroke-miterlimit:4; stroke-dasharray:none; stroke-opacity:1;">
    <rect x="0" y="0" width="45" height="45" style="fill:#ffce9e; stroke:none;"  />
  </g>
</svg>
</g>
<g id="gTiles8">
<svg width="45" height="45" x="0" y="315">
    <g id="tile1x8" style="opacity:1; fill:000000; fill-opacity:1; fill-rule:evenodd; stroke:#000000; stroke-width:1.5; stroke-linecap:round;stroke-linejoin:round;stroke-miterlimit:4; stroke-dasharray:none; stroke-opacity:1;">
      <rect x="0" y="0" width="45" height="45" style="fill:#d18b47; stroke:none;"  />
    </g>
  </svg>
  <svg width="45" height="45" x="45" y="315">
  <g id="tile2x8" style="opacity:1; fill:000000; fill-opacity:1; fill-rule:evenodd; stroke:#000000; stroke-width:1.5; stroke-linecap:round;stroke-linejoin:round;stroke-miterlimit:4; stroke-dasharray:none; stroke-opacity:1;">
    <rect x="0" y="0" width="45" height="45" style="fill:#ffce9e; stroke:none;"  />
  </g>
</svg>
<svg width="45" height="45" x="90" y="315">
    <g id="tile3x8" style="opacity:1; fill:000000; fill-opacity:1; fill-rule:evenodd; stroke:#000000; stroke-width:1.5; stroke-linecap:round;stroke-linejoin:round;stroke-miterlimit:4; stroke-dasharray:none; stroke-opacity:1;">
      <rect x="0" y="0" width="45" height="45" style="fill:#d18b47; stroke:none;"  />
    </g>
  </svg>
  <svg width="45" height="45" x="135" y="315">
  <g id="tile4x8" style="opacity:1; fill:000000; fill-opacity:1; fill-rule:evenodd; stroke:#000000; stroke-width:1.5; stroke-linecap:round;stroke-linejoin:round;stroke-miterlimit:4; stroke-dasharray:none; stroke-opacity:1;">
    <rect x="0" y="0" width="45" height="45" style="fill:#ffce9e; stroke:none;"  />
  </g>
</svg>
<svg width="45" height="45" x="180" y="315">
    <g id="tile5x8" style="opacity:1; fill:000000; fill-opacity:1; fill-rule:evenodd; stroke:#000000; stroke-width:1.5; stroke-linecap:round;stroke-linejoin:round;stroke-miterlimit:4; stroke-dasharray:none; stroke-opacity:1;">
      <rect x="0" y="0" width="45" height="45" style="fill:#d18b47; stroke:none;"  />
    </g>
  </svg>
  <svg width="45" height="45" x="225" y="315">
  <g id="tile6x8" style="opacity:1; fill:000000; fill-opacity:1; fill-rule:evenodd; stroke:#000000; stroke-width:1.5; stroke-linecap:round;stroke-linejoin:round;stroke-miterlimit:4; stroke-dasharray:none; stroke-opacity:1;">
    <rect x="0" y="0" width="45" height="45" style="fill:#ffce9e; stroke:none;"  />
  </g>
</svg>
<svg width="45" height="45" x="270" y="315">
    <g id="tile7x8" style="opacity:1; fill:000000; fill-opacity:1; fill-rule:evenodd; stroke:#000000; stroke-width:1.5; stroke-linecap:round;stroke-linejoin:round;stroke-miterlimit:4; stroke-dasharray:none; stroke-opacity:1;">
      <rect x="0" y="0" width="45" height="45" style="fill:#d18b47; stroke:none;"  />
    </g>
  </svg>
<svg width="45" height="45" x="315" y="0">
    <g id="tile8x1" style="opacity:1; fill:000000; fill-opacity:1; fill-rule:evenodd; stroke:#000000; stroke-width:1.5; stroke-linecap:round;stroke-linejoin:round;stroke-miterlimit:4; stroke-dasharray:none; stroke-opacity:1;">
      <rect x="0" y="0" width="45" height="45" style="fill:#d18b47; stroke:none;"  />
    </g>
  </svg>
  <svg width="45" height="45" x="315" y="45">
  <g id="tile8x2" style="opacity:1; fill:000000; fill-opacity:1; fill-rule:evenodd; stroke:#000000; stroke-width:1.5; stroke-linecap:round;stroke-linejoin:round;stroke-miterlimit:4; stroke-dasharray:none; stroke-opacity:1;">
    <rect x="0" y="0" width="45" height="45" style="fill:#ffce9e; stroke:none;"  />
  </g>
</svg>
<svg width="45" height="45" x="315" y="90">
    <g id="tile8x3" style="opacity:1; fill:000000; fill-opacity:1; fill-rule:evenodd; stroke:#000000; stroke-width:1.5; stroke-linecap:round;stroke-linejoin:round;stroke-miterlimit:4; stroke-dasharray:none; stroke-opacity:1;">
      <rect x="0" y="0" width="45" height="45" style="fill:#d18b47; stroke:none;"  />
    </g>
  </svg>
  <svg width="45" height="45" x="315" y="135">
  <g id="tile8x4" style="opacity:1; fill:000000; fill-opacity:1; fill-rule:evenodd; stroke:#000000; stroke-width:1.5; stroke-linecap:round;stroke-linejoin:round;stroke-miterlimit:4; stroke-dasharray:none; stroke-opacity:1;">
    <rect x="0" y="0" width="45" height="45" style="fill:#ffce9e; stroke:none;"  />
  </g>
</svg>
<svg width="45" height="45" x="315" y="180">
    <g id="tile8x5" style="opacity:1; fill:000000; fill-opacity:1; fill-rule:evenodd; stroke:#000000; stroke-width:1.5; stroke-linecap:round;stroke-linejoin:round;stroke-miterlimit:4; stroke-dasharray:none; stroke-opacity:1;">
      <rect x="0" y="0" width="45" height="45" style="fill:#d18b47; stroke:none;"  />
    </g>
  </svg>
  <svg width="45" height="45" x="315" y="225">
  <g id="tile8x6" style="opacity:1; fill:000000; fill-opacity:1; fill-rule:evenodd; stroke:#000000; stroke-width:1.5; stroke-linecap:round;stroke-linejoin:round;stroke-miterlimit:4; stroke-dasharray:none; stroke-opacity:1;">
    <rect x="0" y="0" width="45" height="45" style="fill:#ffce9e; stroke:none;"  />
  </g>
</svg>
<svg width="45" height="45" x="315" y="270">
    <g id="tile8x7" style="opacity:1; fill:000000; fill-opacity:1; fill-rule:evenodd; stroke:#000000; stroke-width:1.5; stroke-linecap:round;stroke-linejoin:round;stroke-miterlimit:4; stroke-dasharray:none; stroke-opacity:1;">
      <rect x="0" y="0" width="45" height="45" style="fill:#d18b47; stroke:none;"  />
    </g>
  </svg>
  <svg width="45" height="45" x="315" y="315">
  <g id="tile8x8" style="opacity:1; fill:000000; fill-opacity:1; fill-rule:evenodd; stroke:#000000; stroke-width:1.5; stroke-linecap:round;stroke-linejoin:round;stroke-miterlimit:4; stroke-dasharray:none; stroke-opacity:1;">
    <rect x="0" y="0" width="45" height="45" style="fill:#ffce9e; stroke:none;"  />
  </g>
</svg>
</g>
<svg id="svgQueen1" width="45" height="45" x="0" y="0">
<g id="queen1">
      <g style="fill:#000000; stroke:none;">
        <circle cx="6"    cy="12" r="2.75" />
        <circle cx="14"   cy="9"  r="2.75" />
        <circle cx="22.5" cy="8"  r="2.75" />
        <circle cx="31"   cy="9"  r="2.75" />
        <circle cx="39"   cy="12" r="2.75" />
      </g>
      <path
         d="M 9,26 C 17.5,24.5 30,24.5 36,26 L 38.5,13.5 L 31,25 L 30.7,10.9 L 25.5,24.5 L 22.5,10 L 19.5,24.5 L 14.3,10.9 L 14,25 L 6.5,13.5 L 9,26 z"
         style="stroke-linecap:butt; stroke:#000000;" />
      <path
         d="M 9,26 C 9,28 10.5,28 11.5,30 C 12.5,31.5 12.5,31 12,33.5 C 10.5,34.5 10.5,36 10.5,36 C 9,37.5 11,38.5 11,38.5 C 17.5,39.5 27.5,39.5 34,38.5 C 34,38.5 35.5,37.5 34,36 C 34,36 34.5,34.5 33,33.5 C 32.5,31 32.5,31.5 33.5,30 C 34.5,28 36,28 36,26 C 27.5,24.5 17.5,24.5 9,26 z"
         style="stroke-linecap:butt;" />
      <path
         d="M 11,38.5 A 35,35 1 0 0 34,38.5"
         style="fill:none; stroke:#000000; stroke-linecap:butt;" />
      <path
         d="M 11,29 A 35,35 1 0 1 34,29"
         style="fill:none; stroke:#ffffff;" />
      <path
         d="M 12.5,31.5 L 32.5,31.5"
         style="fill:none; stroke:#ffffff;" />
      <path
         d="M 11.5,34.5 A 35,35 1 0 0 33.5,34.5"
         style="fill:none; stroke:#ffffff;" />
      <path
         d="M 10.5,37.5 A 35,35 1 0 0 34.5,37.5"
         style="fill:none; stroke:#ffffff;" />
       </g>
</svg>
<svg id="svgQueen2" width="45" height="45" x="45" y="0">
<g id="queen2">
      <g style="fill:#000000; stroke:none;">
        <circle cx="6"    cy="12" r="2.75" />
        <circle cx="14"   cy="9"  r="2.75" />
        <circle cx="22.5" cy="8"  r="2.75" />
        <circle cx="31"   cy="9"  r="2.75" />
        <circle cx="39"   cy="12" r="2.75" />
      </g>
      <path
         d="M 9,26 C 17.5,24.5 30,24.5 36,26 L 38.5,13.5 L 31,25 L 30.7,10.9 L 25.5,24.5 L 22.5,10 L 19.5,24.5 L 14.3,10.9 L 14,25 L 6.5,13.5 L 9,26 z"
         style="stroke-linecap:butt; stroke:#000000;" />
      <path
         d="M 9,26 C 9,28 10.5,28 11.5,30 C 12.5,31.5 12.5,31 12,33.5 C 10.5,34.5 10.5,36 10.5,36 C 9,37.5 11,38.5 11,38.5 C 17.5,39.5 27.5,39.5 34,38.5 C 34,38.5 35.5,37.5 34,36 C 34,36 34.5,34.5 33,33.5 C 32.5,31 32.5,31.5 33.5,30 C 34.5,28 36,28 36,26 C 27.5,24.5 17.5,24.5 9,26 z"
         style="stroke-linecap:butt;" />
      <path
         d="M 11,38.5 A 35,35 1 0 0 34,38.5"
         style="fill:none; stroke:#000000; stroke-linecap:butt;" />
      <path
         d="M 11,29 A 35,35 1 0 1 34,29"
         style="fill:none; stroke:#ffffff;" />
      <path
         d="M 12.5,31.5 L 32.5,31.5"
         style="fill:none; stroke:#ffffff;" />
      <path
         d="M 11.5,34.5 A 35,35 1 0 0 33.5,34.5"
         style="fill:none; stroke:#ffffff;" />
      <path
         d="M 10.5,37.5 A 35,35 1 0 0 34.5,37.5"
         style="fill:none; stroke:#ffffff;" />
       </g>
</svg>
<svg id="svgQueen3" width="45" height="45" x="90" y="0">
<g id="queen3">
      <g style="fill:#000000; stroke:none;">
        <circle cx="6"    cy="12" r="2.75" />
        <circle cx="14"   cy="9"  r="2.75" />
        <circle cx="22.5" cy="8"  r="2.75" />
        <circle cx="31"   cy="9"  r="2.75" />
        <circle cx="39"   cy="12" r="2.75" />
      </g>
      <path
         d="M 9,26 C 17.5,24.5 30,24.5 36,26 L 38.5,13.5 L 31,25 L 30.7,10.9 L 25.5,24.5 L 22.5,10 L 19.5,24.5 L 14.3,10.9 L 14,25 L 6.5,13.5 L 9,26 z"
         style="stroke-linecap:butt; stroke:#000000;" />
      <path
         d="M 9,26 C 9,28 10.5,28 11.5,30 C 12.5,31.5 12.5,31 12,33.5 C 10.5,34.5 10.5,36 10.5,36 C 9,37.5 11,38.5 11,38.5 C 17.5,39.5 27.5,39.5 34,38.5 C 34,38.5 35.5,37.5 34,36 C 34,36 34.5,34.5 33,33.5 C 32.5,31 32.5,31.5 33.5,30 C 34.5,28 36,28 36,26 C 27.5,24.5 17.5,24.5 9,26 z"
         style="stroke-linecap:butt;" />
      <path
         d="M 11,38.5 A 35,35 1 0 0 34,38.5"
         style="fill:none; stroke:#000000; stroke-linecap:butt;" />
      <path
         d="M 11,29 A 35,35 1 0 1 34,29"
         style="fill:none; stroke:#ffffff;" />
      <path
         d="M 12.5,31.5 L 32.5,31.5"
         style="fill:none; stroke:#ffffff;" />
      <path
         d="M 11.5,34.5 A 35,35 1 0 0 33.5,34.5"
         style="fill:none; stroke:#ffffff;" />
      <path
         d="M 10.5,37.5 A 35,35 1 0 0 34.5,37.5"
         style="fill:none; stroke:#ffffff;" />
       </g>
</svg>
<svg id="svgQueen4" width="45" height="45" x="135" y="0">
<g id="queen4">
      <g style="fill:#000000; stroke:none;">
        <circle cx="6"    cy="12" r="2.75" />
        <circle cx="14"   cy="9"  r="2.75" />
        <circle cx="22.5" cy="8"  r="2.75" />
        <circle cx="31"   cy="9"  r="2.75" />
        <circle cx="39"   cy="12" r="2.75" />
      </g>
      <path
         d="M 9,26 C 17.5,24.5 30,24.5 36,26 L 38.5,13.5 L 31,25 L 30.7,10.9 L 25.5,24.5 L 22.5,10 L 19.5,24.5 L 14.3,10.9 L 14,25 L 6.5,13.5 L 9,26 z"
         style="stroke-linecap:butt; stroke:#000000;" />
      <path
         d="M 9,26 C 9,28 10.5,28 11.5,30 C 12.5,31.5 12.5,31 12,33.5 C 10.5,34.5 10.5,36 10.5,36 C 9,37.5 11,38.5 11,38.5 C 17.5,39.5 27.5,39.5 34,38.5 C 34,38.5 35.5,37.5 34,36 C 34,36 34.5,34.5 33,33.5 C 32.5,31 32.5,31.5 33.5,30 C 34.5,28 36,28 36,26 C 27.5,24.5 17.5,24.5 9,26 z"
         style="stroke-linecap:butt;" />
      <path
         d="M 11,38.5 A 35,35 1 0 0 34,38.5"
         style="fill:none; stroke:#000000; stroke-linecap:butt;" />
      <path
         d="M 11,29 A 35,35 1 0 1 34,29"
         style="fill:none; stroke:#ffffff;" />
      <path
         d="M 12.5,31.5 L 32.5,31.5"
         style="fill:none; stroke:#ffffff;" />
      <path
         d="M 11.5,34.5 A 35,35 1 0 0 33.5,34.5"
         style="fill:none; stroke:#ffffff;" />
      <path
         d="M 10.5,37.5 A 35,35 1 0 0 34.5,37.5"
         style="fill:none; stroke:#ffffff;" />
       </g>
</svg>
<svg id="svgQueen5" width="45" height="45" x="180" y="0">
<g id="queen5">
      <g style="fill:#000000; stroke:none;">
        <circle cx="6"    cy="12" r="2.75" />
        <circle cx="14"   cy="9"  r="2.75" />
        <circle cx="22.5" cy="8"  r="2.75" />
        <circle cx="31"   cy="9"  r="2.75" />
        <circle cx="39"   cy="12" r="2.75" />
      </g>
      <path
         d="M 9,26 C 17.5,24.5 30,24.5 36,26 L 38.5,13.5 L 31,25 L 30.7,10.9 L 25.5,24.5 L 22.5,10 L 19.5,24.5 L 14.3,10.9 L 14,25 L 6.5,13.5 L 9,26 z"
         style="stroke-linecap:butt; stroke:#000000;" />
      <path
         d="M 9,26 C 9,28 10.5,28 11.5,30 C 12.5,31.5 12.5,31 12,33.5 C 10.5,34.5 10.5,36 10.5,36 C 9,37.5 11,38.5 11,38.5 C 17.5,39.5 27.5,39.5 34,38.5 C 34,38.5 35.5,37.5 34,36 C 34,36 34.5,34.5 33,33.5 C 32.5,31 32.5,31.5 33.5,30 C 34.5,28 36,28 36,26 C 27.5,24.5 17.5,24.5 9,26 z"
         style="stroke-linecap:butt;" />
      <path
         d="M 11,38.5 A 35,35 1 0 0 34,38.5"
         style="fill:none; stroke:#000000; stroke-linecap:butt;" />
      <path
         d="M 11,29 A 35,35 1 0 1 34,29"
         style="fill:none; stroke:#ffffff;" />
      <path
         d="M 12.5,31.5 L 32.5,31.5"
         style="fill:none; stroke:#ffffff;" />
      <path
         d="M 11.5,34.5 A 35,35 1 0 0 33.5,34.5"
         style="fill:none; stroke:#ffffff;" />
      <path
         d="M 10.5,37.5 A 35,35 1 0 0 34.5,37.5"
         style="fill:none; stroke:#ffffff;" />
       </g>
</svg>
<svg id="svgQueen6" width="45" height="45" x="225" y="0">
<g id="queen6">
      <g style="fill:#000000; stroke:none;">
        <circle cx="6"    cy="12" r="2.75" />
        <circle cx="14"   cy="9"  r="2.75" />
        <circle cx="22.5" cy="8"  r="2.75" />
        <circle cx="31"   cy="9"  r="2.75" />
        <circle cx="39"   cy="12" r="2.75" />
      </g>
      <path
         d="M 9,26 C 17.5,24.5 30,24.5 36,26 L 38.5,13.5 L 31,25 L 30.7,10.9 L 25.5,24.5 L 22.5,10 L 19.5,24.5 L 14.3,10.9 L 14,25 L 6.5,13.5 L 9,26 z"
         style="stroke-linecap:butt; stroke:#000000;" />
      <path
         d="M 9,26 C 9,28 10.5,28 11.5,30 C 12.5,31.5 12.5,31 12,33.5 C 10.5,34.5 10.5,36 10.5,36 C 9,37.5 11,38.5 11,38.5 C 17.5,39.5 27.5,39.5 34,38.5 C 34,38.5 35.5,37.5 34,36 C 34,36 34.5,34.5 33,33.5 C 32.5,31 32.5,31.5 33.5,30 C 34.5,28 36,28 36,26 C 27.5,24.5 17.5,24.5 9,26 z"
         style="stroke-linecap:butt;" />
      <path
         d="M 11,38.5 A 35,35 1 0 0 34,38.5"
         style="fill:none; stroke:#000000; stroke-linecap:butt;" />
      <path
         d="M 11,29 A 35,35 1 0 1 34,29"
         style="fill:none; stroke:#ffffff;" />
      <path
         d="M 12.5,31.5 L 32.5,31.5"
         style="fill:none; stroke:#ffffff;" />
      <path
         d="M 11.5,34.5 A 35,35 1 0 0 33.5,34.5"
         style="fill:none; stroke:#ffffff;" />
      <path
         d="M 10.5,37.5 A 35,35 1 0 0 34.5,37.5"
         style="fill:none; stroke:#ffffff;" />
       </g>
</svg>
<svg id="svgQueen7" width="45" height="45" x="270" y="0">
<g id="queen7">
      <g style="fill:#000000; stroke:none;">
        <circle cx="6"    cy="12" r="2.75" />
        <circle cx="14"   cy="9"  r="2.75" />
        <circle cx="22.5" cy="8"  r="2.75" />
        <circle cx="31"   cy="9"  r="2.75" />
        <circle cx="39"   cy="12" r="2.75" />
      </g>
      <path
         d="M 9,26 C 17.5,24.5 30,24.5 36,26 L 38.5,13.5 L 31,25 L 30.7,10.9 L 25.5,24.5 L 22.5,10 L 19.5,24.5 L 14.3,10.9 L 14,25 L 6.5,13.5 L 9,26 z"
         style="stroke-linecap:butt; stroke:#000000;" />
      <path
         d="M 9,26 C 9,28 10.5,28 11.5,30 C 12.5,31.5 12.5,31 12,33.5 C 10.5,34.5 10.5,36 10.5,36 C 9,37.5 11,38.5 11,38.5 C 17.5,39.5 27.5,39.5 34,38.5 C 34,38.5 35.5,37.5 34,36 C 34,36 34.5,34.5 33,33.5 C 32.5,31 32.5,31.5 33.5,30 C 34.5,28 36,28 36,26 C 27.5,24.5 17.5,24.5 9,26 z"
         style="stroke-linecap:butt;" />
      <path
         d="M 11,38.5 A 35,35 1 0 0 34,38.5"
         style="fill:none; stroke:#000000; stroke-linecap:butt;" />
      <path
         d="M 11,29 A 35,35 1 0 1 34,29"
         style="fill:none; stroke:#ffffff;" />
      <path
         d="M 12.5,31.5 L 32.5,31.5"
         style="fill:none; stroke:#ffffff;" />
      <path
         d="M 11.5,34.5 A 35,35 1 0 0 33.5,34.5"
         style="fill:none; stroke:#ffffff;" />
      <path
         d="M 10.5,37.5 A 35,35 1 0 0 34.5,37.5"
         style="fill:none; stroke:#ffffff;" />
       </g>
</svg>
<svg id="svgQueen8" width="45" height="45" x="315" y="0">
<g id="queen8">
      <g style="fill:#000000; stroke:none;">
        <circle cx="6"    cy="12" r="2.75" />
        <circle cx="14"   cy="9"  r="2.75" />
        <circle cx="22.5" cy="8"  r="2.75" />
        <circle cx="31"   cy="9"  r="2.75" />
        <circle cx="39"   cy="12" r="2.75" />
      </g>
      <path
         d="M 9,26 C 17.5,24.5 30,24.5 36,26 L 38.5,13.5 L 31,25 L 30.7,10.9 L 25.5,24.5 L 22.5,10 L 19.5,24.5 L 14.3,10.9 L 14,25 L 6.5,13.5 L 9,26 z"
         style="stroke-linecap:butt; stroke:#000000;" />
      <path
         d="M 9,26 C 9,28 10.5,28 11.5,30 C 12.5,31.5 12.5,31 12,33.5 C 10.5,34.5 10.5,36 10.5,36 C 9,37.5 11,38.5 11,38.5 C 17.5,39.5 27.5,39.5 34,38.5 C 34,38.5 35.5,37.5 34,36 C 34,36 34.5,34.5 33,33.5 C 32.5,31 32.5,31.5 33.5,30 C 34.5,28 36,28 36,26 C 27.5,24.5 17.5,24.5 9,26 z"
         style="stroke-linecap:butt;" />
      <path
         d="M 11,38.5 A 35,35 1 0 0 34,38.5"
         style="fill:none; stroke:#000000; stroke-linecap:butt;" />
      <path
         d="M 11,29 A 35,35 1 0 1 34,29"
         style="fill:none; stroke:#ffffff;" />
      <path
         d="M 12.5,31.5 L 32.5,31.5"
         style="fill:none; stroke:#ffffff;" />
      <path
         d="M 11.5,34.5 A 35,35 1 0 0 33.5,34.5"
         style="fill:none; stroke:#ffffff;" />
      <path
         d="M 10.5,37.5 A 35,35 1 0 0 34.5,37.5"
         style="fill:none; stroke:#ffffff;" />
       </g>
</svg>
</svg>
